<svg width="48" height="48" viewBox="0 0 48 48" fill="none" xmlns="http://www.w3.org/2000/svg">
<path d="M7.1377 26.7764C7.8992 34.7417 14.6486 40.9726 22.8634 40.9726C31.5884 40.9726 38.6615 33.9439 38.6615 25.2734C38.6615 24.0736 38.5256 22.9055 38.2691 21.7829C38.1244 21.958 37.905 22.0698 37.6591 22.0698H35.1385C34.7029 22.0698 34.3498 21.7189 34.3498 21.286V19.7209C34.3498 19.3875 34.1375 19.0902 33.8204 18.9816C33.5131 18.8764 33.2145 18.7529 32.9257 18.6126C32.6236 18.4657 32.2612 18.5261 32.0234 18.7625L30.909 19.8698C30.601 20.1759 30.1016 20.1759 29.7935 19.8698L28.0112 18.0987C27.7032 17.7926 27.7032 17.2963 28.0112 16.9902L29.1256 15.8828C29.3634 15.6465 29.4243 15.2864 29.2765 14.9861C29.1352 14.6991 29.011 14.4024 28.9052 14.0971C28.7959 13.7819 28.4967 13.5711 28.1611 13.5711H26.5861C26.1505 13.5711 25.7974 13.2201 25.7974 12.7873V10.2825C25.7974 10.1303 25.8418 9.98868 25.9173 9.86845C24.9291 9.67612 23.9083 9.57422 22.8635 9.57422C14.7291 9.57422 8.03173 15.6838 7.162 23.5371" stroke="#FF3600" stroke-width="1.5" stroke-miterlimit="10" stroke-linecap="round" stroke-linejoin="round"/>
<path d="M27.8869 29.6467V20.8994L23.2449 27.4307H28.6144" stroke="#FF3600" stroke-width="1.5" stroke-miterlimit="10" stroke-linecap="round" stroke-linejoin="round"/>
<path d="M17.1123 23.4678V23.1382C17.1123 21.9017 18.1515 20.8994 19.4333 20.8994C20.7152 20.8994 21.7543 21.9018 21.7543 23.1382V23.9563C21.7543 24.5225 21.532 25.0676 21.1321 25.4819L17.1124 29.6466H21.7543" stroke="#FF3600" stroke-width="1.5" stroke-miterlimit="10" stroke-linecap="round" stroke-linejoin="round"/>
<path d="M22.8633 12.835V13.8236" stroke="#FF3600" stroke-width="1.5" stroke-miterlimit="10" stroke-linecap="round" stroke-linejoin="round"/>
<path d="M22.8633 36.6592V37.7116" stroke="#FF3600" stroke-width="1.5" stroke-miterlimit="10" stroke-linecap="round" stroke-linejoin="round"/>
<path d="M10.3467 25.2734H11.3416" stroke="#FF3600" stroke-width="1.5" stroke-miterlimit="10" stroke-linecap="round" stroke-linejoin="round"/>
<path d="M34.3203 25.2734H35.3794" stroke="#FF3600" stroke-width="1.5" stroke-miterlimit="10" stroke-linecap="round" stroke-linejoin="round"/>
<path d="M14.0127 16.4785L14.7162 17.1776" stroke="#FF3600" stroke-width="1.5" stroke-miterlimit="10" stroke-linecap="round" stroke-linejoin="round"/>
<path d="M30.9648 33.3252L31.7137 34.0693" stroke="#FF3600" stroke-width="1.5" stroke-miterlimit="10" stroke-linecap="round" stroke-linejoin="round"/>
<path d="M14.0127 34.0682L14.7162 33.3691" stroke="#FF3600" stroke-width="1.5" stroke-miterlimit="10" stroke-linecap="round" stroke-linejoin="round"/>
<path d="M9.62845 7.97852C4.38456 11.9473 1 18.2176 1 25.2735C1 37.2727 10.7885 46.9999 22.8632 46.9999C28.6334 46.9999 33.8804 44.7776 37.7877 41.1486" stroke="#FF3600" stroke-width="1.5" stroke-miterlimit="10" stroke-linecap="round" stroke-linejoin="round"/>
<path d="M39.9997 38.7657C42.9585 35.0596 44.7264 30.372 44.7264 25.2737C44.7264 23.1145 44.4079 21.0296 43.8177 19.061L43.0037 19.87C42.6957 20.1761 42.1963 20.1761 41.8883 19.87L40.7739 18.7626C40.5361 18.5263 40.1737 18.4659 39.8715 18.6127C39.5827 18.7531 39.2841 18.8766 38.9769 18.9817C38.6597 19.0903 38.4475 19.3877 38.4475 19.7211V21.2862C38.4475 21.7191 38.0944 22.0699 37.6587 22.0699H35.1381C34.7025 22.0699 34.3494 21.7191 34.3494 21.2862V19.7211C34.3494 19.3877 34.1372 19.0903 33.82 18.9817C33.5128 18.8766 33.2142 18.753 32.9253 18.6127C32.6232 18.4658 32.2609 18.5262 32.023 18.7626L30.9086 19.87C30.6006 20.1761 30.1012 20.1761 29.7932 19.87L28.0109 18.0988C27.7029 17.7927 27.7029 17.2965 28.0109 16.9904L29.1253 15.8829C29.3631 15.6467 29.424 15.2865 29.2762 14.9863C29.1349 14.6993 29.0106 14.4025 28.9048 14.0973C28.7956 13.782 28.4963 13.5712 28.1608 13.5712H26.5858C26.1502 13.5712 25.7971 13.2202 25.7971 12.7874V10.2826C25.7971 9.8497 26.1502 9.49882 26.5858 9.49882H28.1608C28.4962 9.49882 28.7955 9.28798 28.9047 8.97274C29.0106 8.6674 29.1349 8.37066 29.2762 8.08365C29.424 7.7834 29.3632 7.42335 29.1253 7.18697L28.0109 6.07954C27.7029 5.77346 27.7029 5.27717 28.0109 4.97109L28.6643 4.32181C26.8166 3.81775 24.8718 3.54712 22.863 3.54712" stroke="#FF3600" stroke-width="1.5" stroke-miterlimit="10" stroke-linecap="round" stroke-linejoin="round"/>
<path d="M9.62886 11.5808V7.97852H6.00391" stroke="#FF3600" stroke-width="1.5" stroke-miterlimit="10" stroke-linecap="round" stroke-linejoin="round"/>
<path d="M47.0006 12.7873V10.2825C47.0006 9.84963 46.6475 9.49875 46.2119 9.49875H44.6369C44.3014 9.49875 44.0021 9.2879 43.8929 8.97266C43.7871 8.66732 43.6628 8.37058 43.5216 8.08357C43.3737 7.78332 43.4346 7.42328 43.6723 7.18689L44.7867 6.07946C45.0948 5.77338 45.0948 5.27709 44.7867 4.97101L43.0044 3.19987C42.6963 2.89378 42.1969 2.89378 41.8889 3.19987L40.7745 4.30729C40.5367 4.54359 40.1743 4.60403 39.8722 4.45723C39.5834 4.31683 39.2848 4.19336 38.9776 4.08822C38.6604 3.97965 38.4482 3.68227 38.4482 3.34888V1.78376C38.4482 1.35088 38.095 1 37.6595 1H35.1389C34.7033 1 34.3502 1.35088 34.3502 1.78376V3.34888C34.3502 3.68227 34.1379 3.97965 33.8208 4.08822C33.5135 4.19336 33.215 4.31692 32.9262 4.45723C32.6241 4.60412 32.2618 4.54368 32.0239 4.30729L30.9094 3.19987C30.6014 2.89378 30.102 2.89378 29.794 3.19987L28.0117 4.97101C27.7037 5.27709 27.7037 5.77338 28.0117 6.07946L29.1261 7.18689C29.3638 7.42318 29.4247 7.78332 29.2769 8.08357C29.1357 8.37058 29.0114 8.66732 28.9055 8.97266C28.7963 9.2879 28.497 9.49875 28.1615 9.49875H26.5866C26.1509 9.49875 25.7979 9.84963 25.7979 10.2825V12.7873C25.7979 13.2202 26.1509 13.5711 26.5866 13.5711H28.1615C28.497 13.5711 28.7963 13.7819 28.9055 14.0972C29.0113 14.4024 29.1357 14.6992 29.2769 14.9862C29.4247 15.2864 29.3638 15.6465 29.126 15.8829L28.0116 16.9903C27.7036 17.2964 27.7036 17.7927 28.0116 18.0987L29.7939 19.8699C30.1019 20.176 30.6013 20.176 30.9093 19.8699L32.0237 18.7626C32.2615 18.5263 32.6239 18.4658 32.926 18.6126C33.2148 18.753 33.5134 18.8765 33.8206 18.9816C34.1378 19.0902 34.35 19.3876 34.35 19.721V21.2861C34.35 21.719 34.7031 22.0699 35.1387 22.0699H37.6593C38.0949 22.0699 38.448 21.719 38.448 21.2861V19.721C38.448 19.3876 38.6602 19.0902 38.9774 18.9816C39.2847 18.8765 39.5833 18.7529 39.872 18.6125C40.1742 18.4656 40.5365 18.5261 40.7743 18.7625L41.8887 19.8698C42.1968 20.1759 42.6962 20.1759 43.0042 19.8698L44.7865 18.0987C45.0945 17.7926 45.0945 17.2963 44.7865 16.9902L43.6721 15.8828C43.4343 15.6465 43.3735 15.2863 43.5213 14.9861C43.6626 14.6991 43.7868 14.4024 43.8926 14.0971C44.0019 13.7819 44.3011 13.571 44.6366 13.571H46.2116C46.6475 13.5711 47.0006 13.2201 47.0006 12.7873Z" stroke="#FF3600" stroke-width="1.5" stroke-miterlimit="10" stroke-linecap="round" stroke-linejoin="round"/>
<path d="M33.0889 12.9858C33.6232 14.1791 34.7953 15.0388 36.1643 15.1248C38.349 15.262 40.1501 13.4721 40.012 11.3012C39.8982 9.51075 38.4362 8.058 36.6347 7.94489C35.1932 7.85437 33.9192 8.60306 33.2586 9.74631" stroke="#FF3600" stroke-width="1.5" stroke-miterlimit="10" stroke-linecap="round" stroke-linejoin="round"/>
</svg>
