<svg width="43" height="46" viewBox="0 0 43 46" fill="none" xmlns="http://www.w3.org/2000/svg">
<path fill-rule="evenodd" clip-rule="evenodd" d="M16.0963 26.7692H26.9028C27.2583 26.7692 27.5458 27.0572 27.5458 27.4132V45.356C27.5458 45.712 27.2583 46 26.9028 46H16.0963C15.7408 46 15.4533 45.712 15.4533 45.356V27.4132C15.4533 27.0572 15.7417 26.7692 16.0963 26.7692ZM35.4607 3.57052V3.18044C35.4607 2.8244 35.7482 2.53644 36.1037 2.53644C36.4592 2.53644 36.7467 2.8244 36.7467 3.18044V3.57052C37.0507 3.67172 37.3235 3.84284 37.5458 4.06548C37.915 4.43532 38.1428 4.94592 38.1428 5.50988C38.1428 5.86592 37.8553 6.15388 37.4998 6.15388C37.1444 6.15388 36.8569 5.86592 36.8569 5.50988C36.8569 5.30196 36.7724 5.11336 36.6364 4.97628C36.5005 4.8392 36.3122 4.75548 36.1037 4.75548C35.8961 4.75548 35.7078 4.84012 35.5709 4.97628C35.435 5.11244 35.3505 5.30104 35.3505 5.50988C35.3505 6.06648 35.8015 6.17412 36.2516 6.28176C37.1967 6.50716 38.1428 6.73256 38.1428 8.30668C38.1428 8.87064 37.9141 9.38124 37.5458 9.75108C37.3244 9.9728 37.0516 10.1439 36.7467 10.246V10.6361C36.7467 10.9922 36.4592 11.2801 36.1037 11.2801C35.7482 11.2801 35.4607 10.9922 35.4607 10.6361V10.246C35.1567 10.1448 34.8839 9.97372 34.6616 9.75108C34.2923 9.38124 34.0646 8.87064 34.0646 8.30668C34.0646 7.95064 34.3521 7.66268 34.7075 7.66268C35.063 7.66268 35.3505 7.95064 35.3505 8.30668C35.3505 8.5146 35.435 8.7032 35.5709 8.84028C35.7069 8.97644 35.8952 9.06108 36.1037 9.06108C36.3113 9.06108 36.4996 8.97644 36.6364 8.84028C36.7733 8.70412 36.8569 8.51552 36.8569 8.30668C36.8569 7.75008 36.4059 7.64244 35.9558 7.5348C35.0106 7.3094 34.0646 7.084 34.0646 5.50988C34.0646 4.94592 34.2923 4.43532 34.6616 4.06548C34.8839 3.84284 35.1567 3.67172 35.4607 3.57052ZM36.1037 0C34.1996 0 32.4755 0.7728 31.2272 2.02308C29.9789 3.27336 29.2074 5.0002 29.2074 6.90736C29.2074 8.81452 29.9789 10.5414 31.2272 11.7916C32.4755 13.0419 34.1996 13.8147 36.1037 13.8147C38.0078 13.8147 39.7319 13.0419 40.9802 11.7916C42.2284 10.5414 43 8.81452 43 6.90736C43 5.0002 42.2284 3.27336 40.9802 2.02308C39.7319 0.7728 38.0078 0 36.1037 0ZM40.0708 2.93388C39.0558 1.91728 37.6532 1.288 36.1037 1.288C34.5541 1.288 33.1515 1.91728 32.1366 2.93388C31.1216 3.95048 30.4933 5.35532 30.4933 6.90736C30.4933 8.4594 31.1216 9.86424 32.1366 10.8808C33.1515 11.8974 34.5541 12.5267 36.1037 12.5267C37.6532 12.5267 39.0558 11.8974 40.0708 10.8808C41.0858 9.86424 41.7141 8.4594 41.7141 6.90736C41.7141 5.35532 41.0858 3.95048 40.0708 2.93388ZM20.857 13.2011V12.811C20.857 12.455 21.1445 12.167 21.5 12.167C21.8555 12.167 22.143 12.455 22.143 12.811V13.2011C22.447 13.3023 22.7198 13.4734 22.9421 13.696C23.3113 14.0659 23.5391 14.5765 23.5391 15.1404C23.5391 15.4965 23.2516 15.7844 22.8962 15.7844C22.5407 15.7844 22.2532 15.4965 22.2532 15.1404C22.2532 14.9325 22.1687 14.7439 22.0327 14.6068C21.8968 14.4698 21.7085 14.386 21.5 14.386C21.2924 14.386 21.1041 14.4707 20.9673 14.6068C20.8313 14.743 20.7468 14.9316 20.7468 15.1404C20.7468 15.697 21.1978 15.8047 21.6479 15.9123C22.593 16.1377 23.5391 16.3631 23.5391 17.9372C23.5391 18.5012 23.3104 19.0118 22.9421 19.3816C22.7207 19.6034 22.4479 19.7745 22.143 19.8766V20.2667C22.143 20.6227 21.8555 20.9107 21.5 20.9107C21.1445 20.9107 20.857 20.6227 20.857 20.2667V19.8766C20.553 19.7754 20.2802 19.6043 20.0579 19.3816C19.6887 19.0118 19.4609 18.5012 19.4609 17.9372C19.4609 17.5812 19.7484 17.2932 20.1038 17.2932C20.4593 17.2932 20.7468 17.5812 20.7468 17.9372C20.7468 18.1452 20.8313 18.3338 20.9673 18.4708C21.1032 18.607 21.2915 18.6916 21.5 18.6916C21.7085 18.6916 21.8959 18.607 22.0327 18.4708C22.1687 18.3347 22.2532 18.1461 22.2532 17.9372C22.2532 17.3806 21.8022 17.273 21.3521 17.1654C20.4069 16.94 19.4609 16.7146 19.4609 15.1404C19.4609 14.5765 19.6887 14.0659 20.0579 13.696C20.2802 13.4734 20.553 13.3023 20.857 13.2011ZM21.5 9.63056C19.5959 9.63056 17.8718 10.4034 16.6235 11.6536C15.3753 12.9039 14.6037 14.6308 14.6037 16.5379C14.6037 18.4451 15.3753 20.1719 16.6235 21.4222C17.8718 22.6725 19.5959 23.4453 21.5 23.4453C23.4041 23.4453 25.1282 22.6725 26.3765 21.4222C27.6247 20.1719 28.3963 18.4451 28.3963 16.5379C28.3963 14.6308 27.6247 12.9039 26.3765 11.6536C25.1282 10.4043 23.4041 9.63056 21.5 9.63056ZM25.4671 12.5644C24.4522 11.5478 23.0496 10.9186 21.5 10.9186C19.9504 10.9186 18.5478 11.5478 17.5329 12.5644C16.5179 13.581 15.8896 14.9859 15.8896 16.5379C15.8896 18.09 16.5179 19.4948 17.5329 20.5114C18.5478 21.528 19.9504 22.1573 21.5 22.1573C23.0496 22.1573 24.4522 21.528 25.4671 20.5114C26.4821 19.4948 27.1104 18.09 27.1104 16.5379C27.1104 14.9859 26.4821 13.581 25.4671 12.5644ZM6.25334 6.08304V5.69296C6.25334 5.33692 6.54084 5.04896 6.89631 5.04896C7.25178 5.04896 7.53928 5.33692 7.53928 5.69296V6.08304C7.84332 6.18424 8.11612 6.35536 8.3384 6.578C8.70765 6.94784 8.93545 7.45844 8.93545 8.0224C8.93545 8.37844 8.64795 8.6664 8.29248 8.6664C7.93701 8.6664 7.64951 8.37844 7.64951 8.0224C7.64951 7.81448 7.565 7.62588 7.42906 7.4888C7.29312 7.35264 7.10482 7.268 6.89631 7.268C6.68873 7.268 6.50043 7.35264 6.36357 7.4888C6.22762 7.62496 6.14312 7.81356 6.14312 8.0224C6.14312 8.579 6.59412 8.68664 7.0442 8.79428C7.98936 9.01968 8.93545 9.24508 8.93545 10.8192C8.93545 11.3832 8.70673 11.8938 8.3384 12.2636C8.11704 12.4853 7.84423 12.6564 7.53928 12.7586V13.1486C7.53928 13.5047 7.25178 13.7926 6.89631 13.7926C6.54084 13.7926 6.25334 13.5047 6.25334 13.1486V12.7586C5.94931 12.6574 5.67651 12.4862 5.45422 12.2636C5.08497 11.8938 4.85718 11.3832 4.85718 10.8192C4.85718 10.4632 5.14468 10.1752 5.50015 10.1752C5.85562 10.1752 6.14312 10.4632 6.14312 10.8192C6.14312 11.0271 6.22762 11.2157 6.36357 11.3528C6.49951 11.489 6.68781 11.5736 6.89631 11.5736C7.1039 11.5736 7.2922 11.489 7.42906 11.3528C7.565 11.2166 7.64951 11.028 7.64951 10.8192C7.64951 10.2626 7.19851 10.155 6.74843 10.0473C5.80326 9.82192 4.85718 9.59652 4.85718 8.0224C4.85718 7.45844 5.08497 6.94784 5.45422 6.578C5.67651 6.35536 5.94839 6.18424 6.25334 6.08304ZM6.89631 2.51252C4.9922 2.51252 3.26812 3.28532 2.01984 4.5356C0.771564 5.78588 0 7.51272 0 9.41988C0 11.327 0.771564 13.0539 2.01984 14.3042C3.26812 15.5544 4.9922 16.3272 6.89631 16.3272C8.80042 16.3272 10.5245 15.5544 11.7728 14.3042C13.0211 13.0539 13.7926 11.327 13.7926 9.41988C13.7926 7.51272 13.0211 5.78588 11.7728 4.5356C10.5245 3.28532 8.80042 2.51252 6.89631 2.51252ZM10.8634 5.4464C9.84846 4.4298 8.44587 3.80052 6.89631 3.80052C5.34676 3.80052 3.94416 4.42888 2.92919 5.4464C1.91421 6.46392 1.28594 7.86784 1.28594 9.41988C1.28594 10.9719 1.91421 12.3768 2.92919 13.3934C3.94416 14.41 5.34676 15.0392 6.89631 15.0392C8.44587 15.0392 9.84846 14.41 10.8634 13.3934C11.8784 12.3768 12.5067 10.9719 12.5067 9.41988C12.5058 7.86784 11.8784 6.463 10.8634 5.4464ZM1.49261 19.5169H12.2991C12.6546 19.5169 12.9421 19.8048 12.9421 20.1609V45.356C12.9421 45.712 12.6546 46 12.2991 46H1.49261C1.13714 46 0.849639 45.712 0.849639 45.356V20.1609C0.849639 19.8048 1.13806 19.5169 1.49261 19.5169ZM11.657 20.8049H2.13558V44.712H11.6561V20.8049H11.657ZM41.5074 46H30.7C30.3445 46 30.057 45.712 30.057 45.356V18.4414C30.057 18.0854 30.3445 17.7974 30.7 17.7974H41.5065C41.8619 17.7974 42.1494 18.0854 42.1494 18.4414V45.356C42.1504 45.712 41.8619 46 41.5074 46ZM31.343 44.712H40.8635V19.0854H31.343V44.712ZM26.2607 28.0572H16.7393V44.712H26.2598V28.0572H26.2607Z" fill="#FF3600"/>
</svg>
