<svg width="47" height="47" viewBox="0 0 47 47" fill="none" xmlns="http://www.w3.org/2000/svg">
<path d="M34.7392 20.1617C35.1743 20.1617 35.4644 19.8716 35.4644 19.4364C35.4644 19.0013 35.1743 18.7112 34.7392 18.7112H25.8187C25.3836 18.7112 25.0935 19.0013 25.0935 19.4364C25.0935 19.8716 25.3836 20.1617 25.8187 20.1617H34.7392Z" fill="#FF3600"/>
<path d="M20.3067 25.3104C18.7112 24.7302 15.23 23.2072 13.4895 22.8446C11.4588 22.4095 8.84793 22.2644 7.03483 23.2798C5.36678 24.15 5.51183 25.0929 4.13387 26.2532V25.8906C4.13387 25.1654 3.55368 24.5852 2.82844 24.5852H0.72524C0.290096 24.5852 0 24.8753 0 25.3104C0 25.7456 0.290096 26.0357 0.72524 26.0357H2.61086V35.5363H0.72524C0.290096 35.5363 0 35.8264 0 36.2616C0 36.6967 0.290096 36.9868 0.72524 36.9868H2.75591C3.48115 36.9868 4.06135 36.4066 4.06135 35.6814C4.06135 34.8836 4.06135 38.5098 4.06135 28.0663L4.13387 27.9938C6.81726 26.1807 6.01949 25.3829 7.8326 24.5127C9.3556 23.7874 11.3863 23.9325 13.0543 24.2951C16.3904 25.0929 17.3332 26.3258 22.9901 27.7037C25.5285 28.2839 25.4559 27.9938 26.0361 28.2114C26.4713 28.3564 26.9789 28.8641 26.9789 29.4443C26.9064 30.3871 25.601 30.097 24.6582 29.8069C21.3946 28.7191 17.5508 28.2114 14.5048 29.7344C14.2147 29.8794 13.9971 30.3146 14.1422 30.6772C14.2872 30.9673 14.5773 31.1123 14.8674 31.1123C15.23 31.1123 16.5355 30.097 19.7991 30.2421C21.6847 30.3871 23.2077 30.8222 24.3681 31.1849C26.9789 32.0552 28.2844 31.0398 28.4294 29.5893C28.5019 28.574 27.9943 27.6312 26.9064 26.9785C26.0361 26.3983 24.8757 26.906 20.3067 25.3104Z" fill="#FF3600"/>
<path d="M44.0219 13.9971H40.033V12.3291C40.033 10.7336 38.7276 9.42812 37.1321 9.42812H36.6969V5.07668H37.7848C38.2199 5.07668 38.51 4.78659 38.51 4.35144V1.45048H39.743C40.1781 1.45048 40.4682 1.16038 40.4682 0.72524C40.4682 0.290096 40.1781 0 39.743 0C35.464 0 29.5171 0 22.9899 0C20.379 0 17.8407 1.01534 16.0276 2.90096C15.7375 3.19106 15.7375 3.6262 16.0276 3.9163C16.1726 4.06135 16.3902 4.13387 16.5353 4.13387C16.6803 4.13387 16.8979 4.06135 17.0429 3.9163C18.6385 2.32077 20.7417 1.45048 22.9899 1.45048H28.2842V4.35144C28.2842 4.78659 28.5742 5.07668 29.0094 5.07668C29.2995 5.07668 35.3915 5.07668 35.2465 5.07668V9.3556H31.5477V7.32493C31.5477 6.88978 31.2576 6.59969 30.8225 6.59969C30.3873 6.59969 30.0973 6.88978 30.0973 7.32493V9.3556H29.6621C28.0666 9.3556 26.7611 10.661 26.7611 12.2566V13.9246H23.4976C22.1921 13.9246 21.1043 15.0125 21.1043 16.3179V22.2649C21.1043 22.7 21.3944 22.9901 21.8295 22.9901C22.2647 22.9901 22.5548 22.7 22.5548 22.2649V16.3904C22.5548 15.8828 22.9899 15.4476 23.4976 15.4476H44.0219C44.5295 15.4476 44.9647 15.8828 44.9647 16.3904V43.5869C44.9647 44.0946 44.5295 44.5298 44.0219 44.5298H30.4599C31.1851 42.7892 32.7806 41.3387 34.7388 40.831C35.1014 40.686 35.319 40.3234 35.2465 39.9607C35.1014 39.5981 34.7388 39.3806 34.3762 39.4531C33.6509 39.6706 32.9257 40.0333 32.273 40.3959C31.9104 39.5981 31.9104 38.6553 32.2004 37.785C32.7081 36.4071 33.941 35.4643 35.7541 35.1016C38.51 34.5214 39.6704 33.1435 40.2506 31.9106C40.9759 33.3611 41.556 35.8994 39.9605 38.8004C38.8727 40.831 36.9145 41.7013 35.5366 41.6288C35.1014 41.6288 34.8113 41.9189 34.8113 42.2815C34.8113 42.7167 35.1014 43.0067 35.464 43.0067H35.6816C37.4947 43.0067 39.888 41.9189 41.266 39.4531C44.312 33.9412 40.5407 29.5898 40.5407 29.5898C40.3231 29.3722 40.033 29.2997 39.743 29.3722C39.4529 29.5173 39.3078 29.7349 39.3078 30.0975C39.3078 30.0975 39.3803 32.7809 35.5366 33.6511C32.418 34.3039 31.3302 36.1895 30.895 37.2774C30.3873 38.6553 30.4599 40.1058 31.1126 41.2662C30.1698 42.1365 29.4445 43.2968 29.0094 44.5298H23.5701C23.0624 44.5298 22.6273 44.0946 22.6273 43.5869V36.117C22.7723 36.117 23.7877 35.8994 23.9327 35.8994C25.4557 35.5368 26.8337 35.0291 29.5171 32.6358C29.5896 32.5633 35.9717 26.8339 36.4794 25.8186C36.9145 24.9483 36.842 23.8604 36.0442 23.1352C35.5366 22.6275 34.8113 22.4825 34.7388 22.4099C34.0135 22.1924 33.2883 22.3374 32.7081 22.7725C32.273 23.0626 30.895 24.2956 28.7193 25.3109C28.3567 25.4559 28.2116 25.8911 28.3567 26.2537C28.5017 26.6163 28.9369 26.7614 29.2995 26.6163C30.8225 25.9636 32.7081 24.6582 33.5784 23.9329C33.796 23.7154 34.1586 23.7154 34.3762 23.7879C34.8838 24.078 35.2465 24.223 35.1739 24.223C35.3915 24.4406 35.464 24.8032 35.2465 25.1658C34.8113 25.8911 28.7918 31.4029 28.4292 31.693C27.1963 32.7083 25.4557 33.9412 24.0052 34.4489C21.6119 34.8115 20.0889 35.7543 15.5924 33.5061C12.764 32.4182 9.4279 31.9106 6.59947 32.9984C6.30937 33.071 6.0918 33.3611 6.0918 33.7237C6.0918 34.2313 6.59947 34.594 7.10713 34.3764C9.718 33.4336 12.764 33.8687 15.2298 34.9566C17.6956 36.0444 15.3024 34.9566 15.3024 35.0291C17.188 35.9719 18.7835 36.6972 21.2493 36.4071V43.6595C21.2493 44.9649 22.3372 46.0528 23.6426 46.0528H44.1669C45.4723 46.0528 46.5602 44.9649 46.5602 43.6595V16.3904C46.4152 15.0125 45.3273 13.9971 44.0219 13.9971ZM29.7346 3.6262V1.45048H36.987V3.6262C36.9145 3.6262 29.4445 3.6262 29.7346 3.6262ZM28.2116 13.9971V12.3291C28.2116 11.5313 28.8643 10.8786 29.6621 10.8786C29.8797 10.8786 37.4222 10.8786 37.2046 10.8786C38.0024 10.8786 38.6551 11.5313 38.6551 12.3291V13.9971H28.2116Z" fill="#FF3600"/>
<path d="M15.4468 7.10742C15.2293 7.10742 15.0117 7.17995 14.8667 7.39752C14.2865 8.12276 11.3855 11.894 11.3855 13.8522C11.3855 16.1004 13.1986 17.9135 15.4468 17.9135C17.6951 17.9135 19.5082 16.1004 19.5082 13.8522C19.5082 11.894 16.6072 8.12276 16.027 7.39752C15.882 7.17995 15.6644 7.10742 15.4468 7.10742ZM15.4468 16.463C13.9964 16.463 12.836 15.3026 12.836 13.8522C12.836 12.8368 14.2139 10.5886 15.4468 8.99305C16.6072 10.5886 18.0577 12.8368 18.0577 13.8522C17.9852 15.3026 16.8248 16.463 15.4468 16.463Z" fill="#FF3600"/>
</svg>
