<svg width="48" height="48" viewBox="0 0 48 48" fill="none" xmlns="http://www.w3.org/2000/svg">
<path d="M7.1377 26.7764C7.8992 34.7417 14.6486 40.9726 22.8634 40.9726C31.5884 40.9726 38.6615 33.9439 38.6615 25.2734C38.6615 24.0736 38.5256 22.9055 38.2691 21.7829C38.1244 21.958 37.905 22.0698 37.6591 22.0698H35.1385C34.7029 22.0698 34.3498 21.7189 34.3498 21.286V19.7209C34.3498 19.3875 34.1375 19.0902 33.8204 18.9816C33.5131 18.8764 33.2145 18.7529 32.9257 18.6126C32.6236 18.4657 32.2612 18.5261 32.0234 18.7625L30.909 19.8698C30.601 20.1759 30.1016 20.1759 29.7935 19.8698L28.0112 18.0987C27.7032 17.7926 27.7032 17.2963 28.0112 16.9902L29.1256 15.8828C29.3634 15.6465 29.4243 15.2864 29.2765 14.9861C29.1352 14.6991 29.011 14.4024 28.9052 14.0971C28.7959 13.7819 28.4967 13.5711 28.1611 13.5711H26.5861C26.1505 13.5711 25.7974 13.2201 25.7974 12.7873V10.2825C25.7974 10.1303 25.8418 9.98868 25.9173 9.86845C24.9291 9.67612 23.9083 9.57422 22.8635 9.57422C14.7291 9.57422 8.03173 15.6838 7.162 23.5371" stroke="#FF3600" stroke-width="1.5" stroke-miterlimit="10" stroke-linecap="round" stroke-linejoin="round"/>
<path d="M27.8869 29.6467V20.8994L23.2449 27.4307H28.6144" stroke="#FF3600" stroke-width="1.5" stroke-miterlimit="10" stroke-linecap="round" stroke-linejoin="round"/>
<path d="M17.1123 23.4678V23.1382C17.1123 21.9017 18.1515 20.8994 19.4333 20.8994C20.7152 20.8994 21.7543 21.9018 21.7543 23.1382V23.9563C21.7543 24.5225 21.532 25.0676 21.1321 25.4819L17.1124 29.6466H21.7543" stroke="#FF3600" stroke-width="1.5" stroke-miterlimit="10" stroke-linecap="round" stroke-linejoin="round"/>
<path d="M22.8638 12.835V13.8236" stroke="#FF3600" stroke-width="1.5" stroke-miterlimit="10" stroke-linecap="round" stroke-linejoin="round"/>
<path d="M22.8638 36.6592V37.7116" stroke="#FF3600" stroke-width="1.5" stroke-miterlimit="10" stroke-linecap="round" stroke-linejoin="round"/>
<path d="M10.3472 25.2734H11.3421" stroke="#FF3600" stroke-width="1.5" stroke-miterlimit="10" stroke-linecap="round" stroke-linejoin="round"/>
<path d="M34.3208 25.2734H35.3799" stroke="#FF3600" stroke-width="1.5" stroke-miterlimit="10" stroke-linecap="round" stroke-linejoin="round"/>
<path d="M14.0127 16.4775L14.7162 17.1766" stroke="#FF3600" stroke-width="1.5" stroke-miterlimit="10" stroke-linecap="round" stroke-linejoin="round"/>
<path d="M30.9648 33.3242L31.7137 34.0684" stroke="#FF3600" stroke-width="1.5" stroke-miterlimit="10" stroke-linecap="round" stroke-linejoin="round"/>
<path d="M14.0127 34.0685L14.7162 33.3694" stroke="#FF3600" stroke-width="1.5" stroke-miterlimit="10" stroke-linecap="round" stroke-linejoin="round"/>
<path d="M9.62845 7.97852C4.38456 11.9473 1 18.2176 1 25.2735C1 37.2727 10.7885 46.9999 22.8632 46.9999C28.6334 46.9999 33.8804 44.7776 37.7877 41.1486" stroke="#FF3600" stroke-width="1.5" stroke-miterlimit="10" stroke-linecap="round" stroke-linejoin="round"/>
<path d="M39.9997 38.7657C42.9585 35.0596 44.7264 30.372 44.7264 25.2737C44.7264 23.1145 44.4079 21.0296 43.8177 19.061L43.0037 19.87C42.6957 20.1761 42.1963 20.1761 41.8883 19.87L40.7739 18.7626C40.5361 18.5263 40.1737 18.4659 39.8715 18.6127C39.5827 18.7531 39.2841 18.8766 38.9769 18.9817C38.6597 19.0903 38.4475 19.3877 38.4475 19.7211V21.2862C38.4475 21.7191 38.0944 22.0699 37.6587 22.0699H35.1381C34.7025 22.0699 34.3494 21.7191 34.3494 21.2862V19.7211C34.3494 19.3877 34.1372 19.0903 33.82 18.9817C33.5128 18.8766 33.2142 18.753 32.9253 18.6127C32.6232 18.4658 32.2609 18.5262 32.023 18.7626L30.9086 19.87C30.6006 20.1761 30.1012 20.1761 29.7932 19.87L28.0109 18.0988C27.7029 17.7927 27.7029 17.2965 28.0109 16.9904L29.1253 15.8829C29.3631 15.6467 29.424 15.2865 29.2762 14.9863C29.1349 14.6993 29.0106 14.4025 28.9048 14.0973C28.7956 13.782 28.4963 13.5712 28.1608 13.5712H26.5858C26.1502 13.5712 25.7971 13.2202 25.7971 12.7874V10.2826C25.7971 9.8497 26.1502 9.49882 26.5858 9.49882H28.1608C28.4962 9.49882 28.7955 9.28798 28.9047 8.97274C29.0106 8.6674 29.1349 8.37066 29.2762 8.08365C29.424 7.7834 29.3632 7.42335 29.1253 7.18697L28.0109 6.07954C27.7029 5.77346 27.7029 5.27717 28.0109 4.97109L28.6643 4.32181C26.8166 3.81775 24.8718 3.54712 22.863 3.54712" stroke="#FF3600" stroke-width="1.5" stroke-miterlimit="10" stroke-linecap="round" stroke-linejoin="round"/>
<path d="M9.62837 11.581V7.97876H6.00342" stroke="#FF3600" stroke-width="1.5" stroke-miterlimit="10" stroke-linecap="round" stroke-linejoin="round"/>
<path d="M47.0003 12.7873V10.2825C47.0003 9.84963 46.6472 9.49875 46.2116 9.49875H44.6366C44.3012 9.49875 44.0019 9.2879 43.8927 8.97266C43.7868 8.66732 43.6625 8.37058 43.5213 8.08357C43.3735 7.78332 43.4343 7.42328 43.6721 7.18689L44.7865 6.07946C45.0945 5.77338 45.0945 5.27709 44.7865 4.97101L43.0041 3.19987C42.6961 2.89378 42.1967 2.89378 41.8887 3.19987L40.7743 4.30729C40.5365 4.54359 40.1741 4.60403 39.872 4.45723C39.5831 4.31683 39.2845 4.19336 38.9774 4.08822C38.6601 3.97965 38.448 3.68227 38.448 3.34888V1.78376C38.448 1.35088 38.0948 1 37.6593 1H35.1387C34.703 1 34.35 1.35088 34.35 1.78376V3.34888C34.35 3.68227 34.1377 3.97965 33.8206 4.08822C33.5133 4.19336 33.2148 4.31692 32.926 4.45723C32.6238 4.60412 32.2615 4.54368 32.0236 4.30729L30.9091 3.19987C30.6011 2.89378 30.1017 2.89378 29.7937 3.19987L28.0114 4.97101C27.7034 5.27709 27.7034 5.77338 28.0114 6.07946L29.1258 7.18689C29.3636 7.42318 29.4244 7.78332 29.2767 8.08357C29.1354 8.37058 29.0112 8.66732 28.9053 8.97266C28.796 9.2879 28.4968 9.49875 28.1613 9.49875H26.5863C26.1507 9.49875 25.7976 9.84963 25.7976 10.2825V12.7873C25.7976 13.2202 26.1507 13.5711 26.5863 13.5711H28.1613C28.4968 13.5711 28.796 13.7819 28.9053 14.0972C29.0111 14.4024 29.1354 14.6992 29.2766 14.9862C29.4244 15.2864 29.3636 15.6465 29.1257 15.8829L28.0113 16.9903C27.7033 17.2964 27.7033 17.7927 28.0113 18.0987L29.7936 19.8699C30.1016 20.176 30.601 20.176 30.9091 19.8699L32.0235 18.7626C32.2612 18.5263 32.6236 18.4658 32.9258 18.6126C33.2146 18.753 33.5132 18.8765 33.8204 18.9816C34.1376 19.0902 34.3498 19.3876 34.3498 19.721V21.2861C34.3498 21.719 34.7029 22.0699 35.1385 22.0699H37.6591C38.0947 22.0699 38.4478 21.719 38.4478 21.2861V19.721C38.4478 19.3876 38.6599 19.0902 38.9772 18.9816C39.2844 18.8765 39.583 18.7529 39.8718 18.6125C40.1739 18.4656 40.5362 18.5261 40.7741 18.7625L41.8885 19.8698C42.1965 20.1759 42.6959 20.1759 43.0039 19.8698L44.7862 18.0987C45.0942 17.7926 45.0942 17.2963 44.7862 16.9902L43.6718 15.8828C43.434 15.6465 43.3732 15.2863 43.521 14.9861C43.6623 14.6991 43.7866 14.4024 43.8924 14.0971C44.0016 13.7819 44.3009 13.571 44.6364 13.571H46.2113C46.6472 13.5711 47.0003 13.2201 47.0003 12.7873Z" stroke="#FF3600" stroke-width="1.5" stroke-miterlimit="10" stroke-linecap="round" stroke-linejoin="round"/>
<path d="M33.0884 12.9858C33.6227 14.1791 34.7948 15.0388 36.1638 15.1248C38.3485 15.262 40.1496 13.4721 40.0116 11.3012C39.8977 9.51075 38.4357 8.058 36.6342 7.94489C35.1928 7.85437 33.9187 8.60306 33.2581 9.74631" stroke="#FF3600" stroke-width="1.5" stroke-miterlimit="10" stroke-linecap="round" stroke-linejoin="round"/>
</svg>
