<svg width="48" height="48" viewBox="0 0 48 48" fill="none" xmlns="http://www.w3.org/2000/svg">
<path d="M17.4679 22.259V23.3697" stroke="#FF3600" stroke-miterlimit="10" stroke-linecap="round" stroke-linejoin="round"/>
<path d="M29.0365 22.259V23.3697" stroke="#FF3600" stroke-miterlimit="10" stroke-linecap="round" stroke-linejoin="round"/>
<path d="M21.6359 23.3342C22.0064 23.7594 22.5514 24.0285 23.1597 24.0285C23.768 24.0285 24.313 23.7594 24.6835 23.3342" stroke="#FF3600" stroke-miterlimit="10" stroke-linecap="round" stroke-linejoin="round"/>
<path d="M37.054 33.1674C37.0819 32.4005 37.0975 31.6304 37.0975 30.8567C37.0975 25.2652 36.2429 19.987 35.9266 18.8886C35.2511 16.5411 33.0809 14.8958 30.5951 14.8958H15.8334C13.1676 14.8958 10.8641 16.7875 10.3784 19.4087C9.69896 23.0751 9.33105 26.9302 9.33105 30.8567C9.33105 31.63 9.34512 32.3999 9.37298 33.1665C9.37298 33.1669 9.37298 33.1674 9.37307 33.1679" stroke="#FF3600" stroke-miterlimit="10" stroke-linecap="round" stroke-linejoin="round"/>
<path d="M11.4551 42.3262C12.5697 43.5003 14.1598 44.2235 15.9581 44.2235H30.4699C32.2676 44.2235 33.8579 43.5005 34.9727 42.3263" stroke="#FF3600" stroke-miterlimit="10" stroke-linecap="round" stroke-linejoin="round"/>
<path d="M37.0976 30.8564H20.1292H9.33105" stroke="#FF3600" stroke-miterlimit="10" stroke-linecap="round" stroke-linejoin="round"/>
<path d="M9.37353 33.1675C8.75897 32.8116 8.04722 32.6074 7.29095 32.6074C4.99068 32.6074 3.12598 34.4721 3.12598 36.7724C3.12598 38.0471 3.12598 41.4453 3.12598 42.8348C3.12598 45.135 4.99068 46.9997 7.29095 46.9997C9.57114 46.9997 11.4559 45.1514 11.4559 42.8348C11.4559 42.6729 11.4559 42.5026 11.4559 42.3257C11.4559 40.6324 11.4559 38.3217 11.4559 36.7724C11.456 35.2247 10.6137 33.8856 9.37353 33.1675Z" stroke="#FF3600" stroke-miterlimit="10" stroke-linecap="round" stroke-linejoin="round"/>
<path d="M34.9744 36.7724C34.9744 37.9112 34.9744 40.7437 34.9744 42.3258C34.9744 42.5146 34.9744 42.6867 34.9744 42.8348C34.9744 45.135 36.8391 46.9997 39.1393 46.9997C41.4195 46.9997 43.3043 45.1514 43.3043 42.8348C43.3043 41.1237 43.3043 38.4835 43.3043 36.7724C43.3043 34.4578 41.4218 32.6074 39.1393 32.6074C38.3797 32.6074 37.6684 32.8118 37.0552 33.1669C35.8116 33.8875 34.9744 35.2317 34.9744 36.7724Z" stroke="#FF3600" stroke-miterlimit="10" stroke-linecap="round" stroke-linejoin="round"/>
<path d="M42.8929 13.1272C45.1931 13.1272 47.0578 11.2625 47.0578 8.9622C47.0578 7.42875 45.8147 6.18555 44.2812 6.18555H36.6897C35.1562 6.18555 33.9131 7.42865 33.9131 8.9622C33.9131 11.2625 35.7778 13.1272 38.0781 13.1272H38.4029H42.5679H42.8929Z" stroke="#FF3600" stroke-miterlimit="10" stroke-linecap="round" stroke-linejoin="round"/>
<path d="M44.2807 8.96191H36.6892" stroke="#FF3600" stroke-miterlimit="10" stroke-linecap="round" stroke-linejoin="round"/>
<path d="M21.0236 12.1188C20.5263 8.20316 17.1763 5.16504 13.1278 5.16504C8.7375 5.16504 5.16589 8.73674 5.16589 13.1269C5.16589 16.4771 7.2469 19.3486 10.1833 20.522" stroke="#FF3600" stroke-miterlimit="10" stroke-linejoin="round"/>
<path d="M10.1833 20.522C7.2469 19.3486 5.16589 16.4771 5.16589 13.1269C5.16589 8.73664 8.73759 5.16504 13.1278 5.16504C17.1763 5.16504 20.5263 8.20316 21.0236 12.1188" stroke="#FF3600" stroke-miterlimit="10" stroke-linejoin="round"/>
<path d="M25.2116 12.1187C24.6974 5.9019 19.4742 1 13.1268 1C6.47176 1 1 6.41188 1 13.1268C1 18.6246 4.66259 23.2349 9.62714 24.7368" stroke="#FF3600" stroke-miterlimit="10" stroke-linecap="round" stroke-linejoin="round"/>
<path d="M29.1978 14.8958C29.1978 13.3622 27.9547 12.1191 26.4212 12.1191H20.0041C18.4706 12.1191 17.2274 13.3622 17.2274 14.8958" stroke="#FF3600" stroke-miterlimit="10" stroke-linecap="round" stroke-linejoin="round"/>
<path d="M36.6691 23.5249C40.1884 21.4087 42.565 17.5559 42.565 13.1272" stroke="#FF3600" stroke-miterlimit="10" stroke-linejoin="round"/>
<path d="M38.4007 13.1272C38.4007 15.392 37.4486 17.4374 35.9255 18.8886" stroke="#FF3600" stroke-miterlimit="10" stroke-linejoin="round"/>
</svg>
